<svg width="23" height="22" viewBox="0 0 23 22" fill="none" xmlns="http://www.w3.org/2000/svg">
<path d="M19 2.75H4C2.75736 2.75 1.75 3.75736 1.75 5V18.5C1.75 19.7426 2.75736 20.75 4 20.75H19C20.2426 20.75 21.25 19.7426 21.25 18.5V5C21.25 3.75736 20.2426 2.75 19 2.75Z" stroke="#7C8DA6" stroke-width="2" stroke-linejoin="round"/>
<path d="M13.5 9.875C13.5 9.94404 13.444 10 13.375 10C13.306 10 13.25 9.94404 13.25 9.875C13.25 9.80596 13.306 9.75 13.375 9.75C13.444 9.75 13.5 9.80596 13.5 9.875Z" fill="#7C8DA6" stroke="#7C8DA6" stroke-width="2"/>
<path d="M17.25 9.875C17.25 9.94404 17.194 10 17.125 10C17.056 10 17 9.94404 17 9.875C17 9.80596 17.056 9.75 17.125 9.75C17.194 9.75 17.25 9.80596 17.25 9.875Z" fill="#7C8DA6" stroke="#7C8DA6" stroke-width="2"/>
<path d="M13.5 13.625C13.5 13.694 13.444 13.75 13.375 13.75C13.306 13.75 13.25 13.694 13.25 13.625C13.25 13.556 13.306 13.5 13.375 13.5C13.444 13.5 13.5 13.556 13.5 13.625Z" fill="#7C8DA6" stroke="#7C8DA6" stroke-width="2"/>
<path d="M17.25 13.625C17.25 13.694 17.194 13.75 17.125 13.75C17.056 13.75 17 13.694 17 13.625C17 13.556 17.056 13.5 17.125 13.5C17.194 13.5 17.25 13.556 17.25 13.625Z" fill="#7C8DA6" stroke="#7C8DA6" stroke-width="2"/>
<path d="M6 13.625C6 13.694 5.94404 13.75 5.875 13.75C5.80596 13.75 5.75 13.694 5.75 13.625C5.75 13.556 5.80596 13.5 5.875 13.5C5.94404 13.5 6 13.556 6 13.625Z" fill="#7C8DA6" stroke="#7C8DA6" stroke-width="2"/>
<path d="M9.75 13.625C9.75 13.694 9.69404 13.75 9.625 13.75C9.55596 13.75 9.5 13.694 9.5 13.625C9.5 13.556 9.55596 13.5 9.625 13.5C9.69404 13.5 9.75 13.556 9.75 13.625Z" fill="#7C8DA6" stroke="#7C8DA6" stroke-width="2"/>
<path d="M6 17.375C6 17.444 5.94404 17.5 5.875 17.5C5.80596 17.5 5.75 17.444 5.75 17.375C5.75 17.306 5.80596 17.25 5.875 17.25C5.94404 17.25 6 17.306 6 17.375Z" fill="#7C8DA6" stroke="#7C8DA6" stroke-width="2"/>
<path d="M9.75 17.375C9.75 17.444 9.69404 17.5 9.625 17.5C9.55596 17.5 9.5 17.444 9.5 17.375C9.5 17.306 9.55596 17.25 9.625 17.25C9.69404 17.25 9.75 17.306 9.75 17.375Z" fill="#7C8DA6" stroke="#7C8DA6" stroke-width="2"/>
<path d="M13.5 17.375C13.5 17.444 13.444 17.5 13.375 17.5C13.306 17.5 13.25 17.444 13.25 17.375C13.25 17.306 13.306 17.25 13.375 17.25C13.444 17.25 13.5 17.306 13.5 17.375Z" fill="#7C8DA6" stroke="#7C8DA6" stroke-width="2"/>
<path d="M5.5 1.25V2.75M17.5 1.25V2.75" stroke="#7C8DA6" stroke-width="2" stroke-linecap="round" stroke-linejoin="round"/>
<path d="M21.25 6.5H1.75" stroke="#7C8DA6" stroke-width="2" stroke-linejoin="round"/>
</svg>
